<svg width="100" height="100" viewBox="0 0 24 24" fill="none" xmlns="http://www.w3.org/2000/svg">
  <!-- 礼物盒主体 -->
  <rect x="5" y="6" width="14" height="12" rx="1" fill="#FF6B8B"/>
  
  <!-- 礼物盒顶部 -->
  <path d="M5 7.5C5 6.67157 5.67157 6 6.5 6H17.5C18.3284 6 19 6.67157 19 7.5V9H5V7.5Z" fill="#FF8EAB"/>
  
  <!-- 丝带垂直部分 -->
  <rect x="11.5" y="4" width="1" height="16" fill="#FFD166"/>
  
  <!-- 丝带水平部分 -->
  <rect x="5" y="11.5" width="14" height="1" fill="#FFD166"/>
  
  <!-- 蝴蝶结左侧 -->
  <path d="M10.5 4C11.3284 4 12 4.67157 12 5.5V7.5C12 8.32843 11.3284 9 10.5 9C9.67157 9 9 8.32843 9 7.5V5.5C9 4.67157 9.67157 4 10.5 4Z" fill="#FFD166"/>
  
  <!-- 蝴蝶结右侧 -->
  <path d="M13.5 4C14.3284 4 15 4.67157 15 5.5V7.5C15 8.32843 14.3284 9 13.5 9C12.6716 9 12 8.32843 12 7.5V5.5C12 4.67157 12.6716 4 13.5 4Z" fill="#FFD166"/>
  
  <!-- 装饰亮点 -->
  <circle cx="8.5" cy="8.5" r="0.75" fill="#FFFFFF" opacity="0.8"/>
  <circle cx="15.5" cy="8.5" r="0.75" fill="#FFFFFF" opacity="0.8"/>
</svg>